<svg width="24" height="24" viewBox="0 0 24 24" fill="none" xmlns="http://www.w3.org/2000/svg">
<path d="M8.46195 1.14875C6.38008 1.14875 4.40577 2.07347 3.07298 3.67281C2.02242 4.93348 1.44709 6.52258 1.44709 8.16361V19.307C1.44709 20.1298 1.81121 20.8931 2.41575 21.4371C3.01661 21.9779 3.80979 22.2653 4.61648 22.2653H19.3943C20.201 22.2653 20.9941 21.9779 21.595 21.4371C22.1995 20.8931 22.5637 20.1298 22.5637 19.307V8.16361C22.5637 6.52258 21.9883 4.93348 20.9378 3.67281C19.605 2.07347 17.6307 1.14875 15.5488 1.14875H8.46195Z" stroke="white" stroke-opacity="0.75" stroke-width="2.11656" stroke-linecap="round" stroke-linejoin="round"/>
<path d="M2.50537 6.00684H21.5054" stroke="white" stroke-opacity="0.75" stroke-width="2.11656" stroke-linecap="round" stroke-linejoin="round"/>
<mask id="path-3-outside-1_39_466" maskUnits="userSpaceOnUse" x="5.78271" y="7.80664" width="12" height="7" fill="black">
<rect fill="white" x="5.78271" y="7.80664" width="12" height="7"/>
<path d="M16.2272 9.80664C16.2272 10.8145 15.7823 11.781 14.9905 12.4936C14.1987 13.2063 13.1247 13.6066 12.0049 13.6066C10.8851 13.6066 9.8112 13.2063 9.01937 12.4936C8.22755 11.781 7.78271 10.8145 7.78271 9.80664"/>
</mask>
<path d="M17.3816 9.80664C17.3816 9.16903 16.8648 8.65215 16.2272 8.65215C15.5896 8.65215 15.0727 9.16903 15.0727 9.80664L17.3816 9.80664ZM12.0049 13.6066V14.7611V13.6066ZM8.9372 9.80664C8.9372 9.16903 8.42032 8.65215 7.78271 8.65215C7.14511 8.65215 6.62823 9.16903 6.62823 9.80664L8.9372 9.80664ZM15.0727 9.80664C15.0727 10.4667 14.7824 11.1277 14.2182 11.6355L15.7628 13.3518C16.7822 12.4343 17.3816 11.1623 17.3816 9.80664L15.0727 9.80664ZM14.2182 11.6355C13.6499 12.1469 12.8555 12.4522 12.0049 12.4522V14.7611C13.394 14.7611 14.7474 14.2656 15.7628 13.3518L14.2182 11.6355ZM12.0049 12.4522C11.1544 12.4522 10.3599 12.1469 9.79169 11.6355L8.24706 13.3518C9.26246 14.2656 10.6159 14.7611 12.0049 14.7611V12.4522ZM9.79169 11.6355C9.22746 11.1277 8.9372 10.4667 8.9372 9.80664L6.62823 9.80664C6.62823 11.1623 7.22765 12.4343 8.24706 13.3518L9.79169 11.6355Z" fill="white" fill-opacity="0.75" mask="url(#path-3-outside-1_39_466)"/>
</svg>
