<svg width="24" height="24" viewBox="0 0 24 24" fill="none" xmlns="http://www.w3.org/2000/svg">
<g clip-path="url(#clip0_39_495)">
<path d="M20.5 20H3.5C3.224 20 3 19.776 3 19.5V9C3 4.038 7.037 0 12 0C16.963 0 21 4.038 21 9V19.5C21 19.776 20.776 20 20.5 20ZM4 19H20V9C20 4.589 16.411 1 12 1C7.589 1 4 4.589 4 9V19Z" fill="#D4DAE8"/>
<path d="M22.5 24H1.5C0.673 24 0 23.327 0 22.5V21.5C0 20.122 1.121 19 2.5 19H21.5C22.879 19 24 20.122 24 21.5V22.5C24 23.327 23.327 24 22.5 24ZM2.5 20C1.673 20 1 20.673 1 21.5V22.5C1 22.776 1.225 23 1.5 23H22.5C22.775 23 23 22.776 23 22.5V21.5C23 20.673 22.327 20 21.5 20H2.5Z" fill="#D4DAE8"/>
<path d="M12.9228 17.0001H11.0768C10.5398 17.0001 9.96184 16.5961 9.96184 15.7091V14.4051C9.96184 13.8741 9.68984 13.3561 9.21484 12.9841C8.09784 12.1081 7.47384 10.7961 7.50084 9.38414C7.54684 7.00214 9.53484 5.03514 11.9338 5.00014C13.1338 4.96714 14.3018 5.44314 15.1688 6.29614C16.0268 7.14314 16.4998 8.27115 16.4998 9.47215C16.4998 10.8181 15.8978 12.0801 14.8488 12.9331C14.3328 13.3521 14.0378 13.9261 14.0378 14.5071V15.8881C14.0378 16.5011 13.5378 17.0001 12.9228 17.0001ZM11.9998 6.00014C11.9818 6.00014 11.9648 6.00014 11.9468 6.00014C10.1138 6.02614 8.53484 7.58514 8.50084 9.40415C8.47984 10.4991 8.96484 11.5171 9.83184 12.1971C10.5498 12.7601 10.9618 13.5641 10.9618 14.4051V15.7091C10.9618 15.7391 10.9648 16.0001 11.0768 16.0001H12.9228C12.9858 16.0001 13.0378 15.9501 13.0378 15.8891V14.5081C13.0378 13.6241 13.4678 12.7681 14.2178 12.1581C15.0318 11.4951 15.4998 10.5161 15.4998 9.47215C15.4998 8.54015 15.1328 7.66614 14.4668 7.00914C13.8058 6.35714 12.9318 6.00014 11.9998 6.00014Z" fill="#D4DAE8"/>
<path d="M13.5379 15.167H10.4619C10.1859 15.167 9.96191 14.943 9.96191 14.667C9.96191 14.391 10.1859 14.167 10.4619 14.167H13.5379C13.8139 14.167 14.0379 14.391 14.0379 14.667C14.0379 14.943 13.8139 15.167 13.5379 15.167Z" fill="#D4DAE8"/>
</g>
<defs>
<clipPath id="clip0_39_495">
<rect width="24" height="24" fill="white"/>
</clipPath>
</defs>
</svg>
