<svg width="25" height="25" viewBox="0 0 25 25" fill="none" xmlns="http://www.w3.org/2000/svg">
<path d="M12 15.2016V2.23594C12 1.84184 11.8434 1.46389 11.5648 1.18522C11.2861 0.906554 10.9082 0.75 10.5141 0.75H2.23594C1.84184 0.75 1.46389 0.906554 1.18522 1.18522C0.906554 1.46389 0.75 1.84184 0.75 2.23594V15.2016C0.75 15.5957 0.906554 15.9736 1.18522 16.2523C1.46389 16.5309 1.84184 16.6875 2.23594 16.6875H10.5141C10.9082 16.6875 11.2861 16.5309 11.5648 16.2523C11.8434 15.9736 12 15.5957 12 15.2016ZM1.6875 15.2016V2.23594C1.6875 2.09048 1.74528 1.95099 1.84813 1.84813C1.95099 1.74528 2.09048 1.6875 2.23594 1.6875H10.5141C10.6595 1.6875 10.799 1.74528 10.9019 1.84813C11.0047 1.95099 11.0625 2.09048 11.0625 2.23594V15.2016C11.0625 15.2736 11.0483 15.3449 11.0208 15.4114C10.9932 15.478 10.9528 15.5384 10.9019 15.5894C10.8509 15.6403 10.7905 15.6807 10.7239 15.7083C10.6574 15.7358 10.5861 15.75 10.5141 15.75H2.23594C2.16392 15.75 2.0926 15.7358 2.02606 15.7083C1.95952 15.6807 1.89906 15.6403 1.84813 15.5894C1.79721 15.5384 1.75681 15.478 1.72925 15.4114C1.70169 15.3449 1.6875 15.2736 1.6875 15.2016Z" fill="#D4DAE8"/>
<path d="M14.3014 20.2453C14.6358 20.2444 14.9606 20.1336 15.2257 19.9299C15.4909 19.7261 15.6816 19.4408 15.7686 19.1179L19.1834 6.37497C19.2873 5.98649 19.2329 5.57265 19.0321 5.22424C18.8313 4.87582 18.5005 4.62125 18.1123 4.51637L13.4904 3.23434C13.3705 3.20109 13.2422 3.21685 13.1339 3.27817C13.0255 3.33948 12.946 3.44133 12.9127 3.5613C12.8794 3.68127 12.8952 3.80953 12.9565 3.91788C13.0178 4.02622 13.1197 4.10578 13.2397 4.13903L17.8592 5.41872C18.0082 5.45957 18.1352 5.55717 18.2131 5.69059C18.2538 5.75729 18.2807 5.83154 18.2919 5.90888C18.3032 5.98622 18.2987 6.06504 18.2787 6.14059L14.8639 18.8765C14.8444 18.9504 14.8104 19.0195 14.7636 19.0799C14.7169 19.1403 14.6586 19.1907 14.592 19.2281C14.526 19.2664 14.4532 19.2913 14.3775 19.3014C14.3019 19.3114 14.2251 19.3064 14.1514 19.2867L7.40606 17.4797C7.34493 17.4585 7.28008 17.4503 7.2156 17.4554C7.15111 17.4606 7.0884 17.479 7.03139 17.5096C6.97439 17.5402 6.92432 17.5822 6.88436 17.6331C6.84439 17.6839 6.81538 17.7425 6.79916 17.8051C6.78294 17.8677 6.77985 17.933 6.79009 17.9969C6.80034 18.0608 6.82369 18.1218 6.85868 18.1763C6.89367 18.2307 6.93955 18.2772 6.99341 18.313C7.04728 18.3489 7.10798 18.3731 7.17169 18.3843L13.9076 20.2031C14.0365 20.2342 14.1689 20.2484 14.3014 20.2453Z" fill="#D4DAE8"/>
<path d="M23.8546 10.6874L20.0859 8.51238C19.9787 8.45634 19.8541 8.44386 19.738 8.47755C19.6219 8.51123 19.5233 8.58848 19.4627 8.69315C19.4022 8.79782 19.3845 8.92183 19.4133 9.03926C19.442 9.15669 19.5151 9.25846 19.6171 9.32332L23.3859 11.5007C23.4498 11.5373 23.5059 11.5863 23.5509 11.6447C23.5959 11.7031 23.629 11.7698 23.6481 11.841C23.6673 11.9122 23.6722 11.9865 23.6626 12.0596C23.653 12.1328 23.629 12.2032 23.5921 12.2671L17.121 23.4843C17.0843 23.5482 17.0354 23.6043 16.977 23.6493C16.9186 23.6943 16.8518 23.7274 16.7806 23.7465C16.7094 23.7657 16.6351 23.7706 16.562 23.761C16.4889 23.7514 16.4184 23.7274 16.3546 23.6905L10.2609 20.1749C10.153 20.1127 10.0249 20.096 9.90467 20.1283C9.78445 20.1606 9.682 20.2393 9.61984 20.3471C9.55768 20.455 9.54091 20.5831 9.57321 20.7033C9.60552 20.8235 9.68426 20.926 9.7921 20.9882L15.8859 24.5038C16.2305 24.7024 16.64 24.7559 17.0241 24.6526C17.4083 24.5493 17.7357 24.2977 17.9343 23.953L24.403 12.7475C24.5033 12.5765 24.5687 12.3873 24.5953 12.1909C24.622 11.9944 24.6095 11.7946 24.5585 11.6031C24.5075 11.4115 24.419 11.2319 24.2982 11.0748C24.1774 10.9176 24.0266 10.7859 23.8546 10.6874Z" fill="#D4DAE8"/>
</svg>
