<svg width="24" height="24" viewBox="0 0 24 24" fill="none" xmlns="http://www.w3.org/2000/svg">
<path d="M15.6192 11.6187C13.831 11.6187 12.3813 10.169 12.3813 8.38077C12.3813 6.59225 13.831 5.14258 15.6192 5.14258C17.4078 5.14258 18.8574 6.59225 18.8574 8.38077C18.8574 10.169 17.4078 11.6187 15.6192 11.6187ZM15.6192 6.76153C14.7251 6.76153 14.0003 7.48636 14.0003 8.38077C14.0003 9.27488 14.7251 9.99972 15.6192 9.99972C16.5137 9.99972 17.2385 9.27488 17.2385 8.38077C17.2385 7.48636 16.5137 6.76153 15.6192 6.76153Z" fill="#D4DAE8"/>
<path d="M12.0572 17.3058L6.69434 11.9429L6.71449 11.5886C7.02815 4.93023 13.6866 0.285645 22.9049 0.285645H23.7145V1.09527C23.7145 10.3136 19.0699 16.972 12.4216 17.2856L12.0572 17.3058ZM8.3539 11.3153L12.6949 15.6566C18.0578 15.1808 21.8323 9.64567 22.0855 1.93513C14.3646 2.16785 8.82942 5.94233 8.3539 11.3052V11.3153Z" fill="#D4DAE8"/>
<path d="M14 23.2861V16.041H15.6189V19.3803L18.0475 16.9517V13.3999H19.6668V17.6194L14 23.2861Z" fill="#D4DAE8"/>
<path d="M7.95897 9.99977H0.713867L6.38063 4.33301H10.6001V5.95225H7.04825L4.61968 8.38082H7.95897V9.99977Z" fill="#D4DAE8"/>
<path d="M6.99783 19.7144C6.2389 19.7144 5.55083 19.4616 5.0347 18.9555C3.80025 17.7211 4.09345 15.4745 5.70261 13.7139L6.89644 14.8066C5.83394 15.9705 5.662 17.296 6.17813 17.8121C6.69426 18.3282 8.01972 18.156 9.1836 17.0935L10.2763 18.2876C9.25416 19.2288 8.06033 19.7144 6.99783 19.7144Z" fill="#D4DAE8"/>
</svg>
