<svg width="24" height="24" viewBox="0 0 24 24" fill="none" xmlns="http://www.w3.org/2000/svg">
<mask id="path-1-outside-1_39_460" maskUnits="userSpaceOnUse" x="-0.421875" y="-0.474121" width="25" height="25" fill="black">
<rect fill="white" x="-0.421875" y="-0.474121" width="25" height="25"/>
<path d="M21.3617 17.7213C21.4991 17.8391 21.5781 18.011 21.5781 18.1919C21.5781 18.5341 21.3007 18.8116 20.9584 18.8116H3.19785C2.85559 18.8116 2.57812 18.5341 2.57812 18.1919C2.57812 18.011 2.65718 17.8391 2.79454 17.7213L3.63368 17.0021C4.30365 16.4278 4.68924 15.5895 4.68924 14.7071V10.6687C4.68924 7.94022 6.7171 5.52851 9.71358 4.6664C9.86189 4.62373 9.96701 4.48973 9.96701 4.3354C9.96701 3.85549 10.1894 3.39523 10.5853 3.05588C10.9813 2.71652 11.5182 2.52588 12.0781 2.52588C12.638 2.52588 13.175 2.71652 13.5709 3.05588C13.9668 3.39523 14.1892 3.85549 14.1892 4.3354C14.1892 4.48973 14.2944 4.62373 14.4427 4.6664C17.4391 5.52851 19.467 7.94022 19.467 10.6687V14.7071C19.467 15.5895 19.8526 16.4278 20.5226 17.0021L21.3617 17.7213ZM14.1892 19.7164C14.1892 20.1963 13.9668 20.6565 13.5709 20.9959C13.175 21.3352 12.638 21.5259 12.0781 21.5259C11.5182 21.5259 10.9813 21.3352 10.5853 20.9959C10.1894 20.6565 9.96701 20.1963 9.96701 19.7164"/>
</mask>
<path d="M12.0781 2.52588V0.407641V2.52588ZM3.63368 17.0021L2.25515 15.3938L3.63368 17.0021ZM20.5226 17.0021L19.144 18.6104L20.5226 17.0021ZM2.79454 17.7213L4.17307 19.3296L2.79454 17.7213ZM21.3617 17.7213L22.7402 16.113L21.3617 17.7213ZM20.9584 16.6934H3.19785V20.9298H20.9584V16.6934ZM4.17307 19.3296L5.01221 18.6104L2.25515 15.3938L1.41601 16.113L4.17307 19.3296ZM6.80747 14.7071V10.6687H2.571V14.7071H6.80747ZM6.80747 10.6687C6.80747 9.06273 8.02669 7.35589 10.2993 6.70206L9.1279 2.63074C5.40751 3.70112 2.571 6.81771 2.571 10.6687H6.80747ZM12.0853 4.3354C12.0853 4.53191 11.9915 4.64047 11.9639 4.66416L9.20681 1.44759C8.38735 2.14998 7.84878 3.17906 7.84878 4.3354H12.0853ZM11.9639 4.66416C11.9521 4.67422 11.9549 4.66832 11.979 4.65978C12.0027 4.65134 12.0371 4.64412 12.0781 4.64412V0.407641C11.0529 0.407641 10.0162 0.753846 9.20681 1.44759L11.9639 4.66416ZM12.0781 4.64412C12.1192 4.64412 12.1535 4.65134 12.1773 4.65978C12.2013 4.66832 12.2041 4.67422 12.1924 4.66416L14.9494 1.44759C14.1401 0.753846 13.1034 0.407641 12.0781 0.407641V4.64412ZM12.1924 4.66416C12.1647 4.64047 12.071 4.53191 12.071 4.3354H16.3075C16.3075 3.17906 15.7689 2.14998 14.9494 1.44759L12.1924 4.66416ZM13.857 6.70206C16.1296 7.35589 17.3488 9.06273 17.3488 10.6687H21.5853C21.5853 6.81771 18.7487 3.70112 15.0284 2.63074L13.857 6.70206ZM17.3488 10.6687V14.7071H21.5853V10.6687H17.3488ZM19.144 18.6104L19.9832 19.3296L22.7402 16.113L21.9011 15.3938L19.144 18.6104ZM12.071 19.7164C12.071 19.5198 12.1647 19.4113 12.1924 19.3876L14.9494 22.6042C15.7689 21.9018 16.3075 20.8727 16.3075 19.7164H12.071ZM12.1924 19.3876C12.2041 19.3775 12.2013 19.3834 12.1773 19.392C12.1535 19.4004 12.1192 19.4076 12.0781 19.4076V23.6441C13.1034 23.6441 14.1401 23.2979 14.9494 22.6042L12.1924 19.3876ZM12.0781 19.4076C12.0371 19.4076 12.0027 19.4004 11.979 19.392C11.9549 19.3834 11.9521 19.3775 11.9639 19.3876L9.20681 22.6042C10.0162 23.2979 11.0529 23.6441 12.0781 23.6441V19.4076ZM11.9639 19.3876C11.9915 19.4113 12.0853 19.5198 12.0853 19.7164H7.84878C7.84878 20.8727 8.38735 21.9018 9.20681 22.6042L11.9639 19.3876ZM10.2993 6.70206C11.3155 6.40968 12.0853 5.47458 12.0853 4.3354H7.84878C7.84878 3.50488 8.40828 2.83778 9.1279 2.63074L10.2993 6.70206ZM5.01221 18.6104C6.15168 17.6337 6.80747 16.2078 6.80747 14.7071H2.571C2.571 14.9711 2.45562 15.222 2.25515 15.3938L5.01221 18.6104ZM17.3488 14.7071C17.3488 16.2078 18.0046 17.6337 19.144 18.6104L21.9011 15.3938C21.7006 15.222 21.5853 14.9711 21.5853 14.7071H17.3488ZM4.69636 18.1919C4.69636 18.6293 4.50521 19.0449 4.17307 19.3296L1.41601 16.113C0.80915 16.6332 0.459888 17.3926 0.459888 18.1919H4.69636ZM3.19785 16.6934C4.02545 16.6934 4.69636 17.3643 4.69636 18.1919H0.459888C0.459888 19.704 1.68572 20.9298 3.19785 20.9298V16.6934ZM12.071 4.3354C12.071 5.47458 12.8408 6.40968 13.857 6.70206L15.0284 2.63074C15.748 2.83778 16.3075 3.50488 16.3075 4.3354H12.071ZM19.4599 18.1919C19.4599 17.3643 20.1308 16.6934 20.9584 16.6934V20.9298C22.4705 20.9298 23.6964 19.704 23.6964 18.1919H19.4599ZM23.6964 18.1919C23.6964 17.3926 23.3471 16.6332 22.7402 16.113L19.9832 19.3296C19.651 19.0449 19.4599 18.6293 19.4599 18.1919H23.6964Z" fill="white" fill-opacity="0.75" mask="url(#path-1-outside-1_39_460)"/>
</svg>
