<svg width="17" height="12" viewBox="0 0 17 12" fill="none" xmlns="http://www.w3.org/2000/svg">
<path fill-rule="evenodd" clip-rule="evenodd" d="M0.1875 6.16624C0.1875 6.32371 0.250056 6.47474 0.361405 6.58609C0.472755 6.69744 0.623778 6.75999 0.78125 6.75999H14.7854L11.0484 10.4959C10.9369 10.6074 10.8743 10.7586 10.8743 10.9162C10.8743 11.0739 10.9369 11.2251 11.0484 11.3366C11.1599 11.4481 11.3111 11.5107 11.4688 11.5107C11.6264 11.5107 11.7776 11.4481 11.8891 11.3366L16.6391 6.58662C16.6944 6.53146 16.7383 6.46594 16.7682 6.39381C16.7982 6.32167 16.8136 6.24434 16.8136 6.16624C16.8136 6.08814 16.7982 6.01081 16.7682 5.93868C16.7383 5.86654 16.6944 5.80102 16.6391 5.74587L11.8891 0.995868C11.7776 0.884377 11.6264 0.821743 11.4688 0.821743C11.3111 0.821743 11.1599 0.884377 11.0484 0.995868C10.9369 1.10736 10.8743 1.25857 10.8743 1.41624C10.8743 1.57391 10.9369 1.72513 11.0484 1.83662L14.7854 5.57249H0.78125C0.623778 5.57249 0.472755 5.63505 0.361405 5.7464C0.250056 5.85775 0.1875 6.00877 0.1875 6.16624Z" fill="#D4DAE8"/>
</svg>
