<svg width="18" height="17" viewBox="0 0 18 17" fill="none" xmlns="http://www.w3.org/2000/svg">
<path d="M13.2509 10.9692C13.0711 10.7915 12.8285 10.6918 12.5757 10.6918H12.304C12.232 10.6918 12.1628 10.6642 12.1106 10.6145C12.0018 10.511 11.9943 10.3405 12.0882 10.2232C12.9503 9.14555 13.463 7.78744 13.463 6.3179C13.463 2.82847 10.5956 0 7.05815 0C3.52071 0 0.65332 2.82847 0.65332 6.3179C0.65332 9.80732 3.52071 12.6358 7.05815 12.6358C8.54956 12.6358 9.92776 12.129 11.0208 11.2768C11.1385 11.1851 11.307 11.1924 11.4113 11.2991C11.4632 11.3522 11.4923 11.4235 11.4923 11.4978V11.7606C11.4923 12.0096 11.5922 12.2482 11.7696 12.4228L15.6943 16.2865C16.0963 16.6822 16.7415 16.6819 17.1431 16.2858C17.5526 15.8819 17.5529 15.2213 17.1439 14.817L13.2509 10.9692ZM7.05815 10.6918C4.60461 10.6918 2.62404 8.73814 2.62404 6.3179C2.62404 3.89766 4.60461 1.94397 7.05815 1.94397C9.5117 1.94397 11.4923 3.89766 11.4923 6.3179C11.4923 8.73814 9.5117 10.6918 7.05815 10.6918Z" fill="white" fill-opacity="0.75"/>
</svg>
